# Blender v2.79 (sub 0) OBJ File: 'bottle.blend'
# www.blender.org
mtllib bottle.mtl
o Cube
v 2.303665 -1.000000 -1.674075
v 2.303665 -1.000000 1.674075
v -2.436315 -1.000000 1.674075
v -2.436314 -1.000000 -1.674076
v 1.999308 1.000000 -1.423500
v 1.999306 1.000000 1.423501
v -2.131958 1.000000 1.423500
v -2.131957 1.000000 -1.423501
v 2.303666 1.000000 -1.674074
v 2.303664 1.000000 1.674076
v -2.436315 1.000000 -1.674075
v -2.436316 1.000000 1.674075
v 1.999308 -0.724451 -1.423500
v 1.999306 -0.724451 1.423501
v -2.131958 -0.724451 1.423500
v -2.131957 -0.724451 -1.423501
v 1.999308 2.534951 -1.423500
v 1.999306 2.534951 1.423501
v -2.131958 2.534951 1.423500
v -2.131957 2.534951 -1.423501
v 2.303666 2.534951 -1.674074
v 2.303664 2.534951 1.674076
v -2.436315 2.534951 -1.674075
v -2.436316 2.534951 1.674075
v -0.006056 -1.000000 -1.674076
v -0.006056 -1.000000 1.674075
v -0.006056 1.000000 -1.674075
v -0.006056 1.000000 1.674075
v -0.006056 1.000000 -1.423501
v -0.006056 1.000000 1.423500
v -0.006056 -0.724452 -1.423501
v -0.006056 -0.724452 1.423500
v -0.006056 2.534951 -1.674075
v -0.006056 2.534951 1.674075
v -0.006056 2.534951 -1.423501
v -0.006056 2.534951 1.423500
v 1.999308 4.126753 -1.423500
v 1.999306 4.126753 1.423501
v -2.131958 4.126753 1.423500
v -2.131957 4.126753 -1.423501
v 2.303666 4.126753 -1.674074
v 2.303664 4.126753 1.674076
v -2.436315 4.126753 -1.674075
v -2.436316 4.126753 1.674075
v -0.006056 4.126753 -1.674075
v -0.006056 4.126753 1.674075
v -0.006056 4.126753 -1.423501
v -0.006056 4.126753 1.423500
v 2.303665 -1.000000 0.000000
v -2.436315 -1.000000 -0.000001
v 2.303665 1.000000 0.000001
v -2.436315 1.000000 -0.000000
v 1.999307 1.000000 0.000001
v -2.131957 1.000000 -0.000000
v 1.999307 -0.724451 0.000001
v -2.131957 -0.724451 -0.000000
v 2.303665 2.534951 0.000001
v -2.436315 2.534951 -0.000000
v 1.999307 2.269651 0.000001
v -2.131957 2.534951 -0.000000
v -0.006056 0.734700 -0.000000
v -0.006056 -0.724452 -0.000000
v -0.006056 -1.000000 -0.000000
v 2.303665 4.126753 0.000001
v -2.436315 4.126753 -0.000000
v 1.999307 4.126753 0.000001
v -2.131957 3.861453 -0.000000
v -0.006056 2.269651 -0.000000
vn 0.0000 -1.0000 -0.0000
vn -0.0000 0.0000 1.0000
vn 1.0000 0.0000 0.0000
vn -1.0000 -0.0000 -0.0000
vn 0.0000 0.0000 -1.0000
vn 0.0000 1.0000 -0.0000
vn 0.5928 0.7917 0.1476
vn -0.6013 0.7855 -0.1464
vn 0.0657 -0.9935 -0.0926
vn 0.3707 0.9254 0.0793
vn -0.0620 -0.9938 0.0926
vn -0.0620 -0.9938 -0.0926
vn 0.3707 0.9254 -0.0793
vn 0.0657 -0.9935 0.0926
vn -0.6013 0.7855 0.1464
vn 0.5928 0.7917 -0.1476
usemtl Material
s off
f 63//1 26//1 3//1 50//1
f 29//2 8//2 16//2 31//2
f 49//3 51//3 10//3 2//3
f 26//2 28//2 12//2 3//2
f 50//4 52//4 11//4 4//4
f 27//5 25//5 4//5 11//5
f 30//5 7//5 19//5 36//5
f 27//5 11//5 23//5 33//5
f 52//4 12//4 24//4 58//4
f 36//5 18//5 30//5
f 62//6 56//6 15//6 32//6
f 30//5 6//5 14//5 32//5
f 53//4 5//4 13//4 55//4
f 54//3 7//3 15//3 56//3
f 39//5 48//5 36//5
f 35//2 17//2 37//2 47//2
f 24//2 34//2 46//2 44//2
f 68//7 35//7 40//7 67//7
f 61//8 30//8 18//8 59//8
f 28//2 10//2 22//2 34//2
f 51//3 9//3 21//3 57//3
f 54//3 8//3 20//3 60//3
f 12//2 28//2 34//2 24//2
f 34//2 22//2 42//2 46//2
f 33//5 23//5 43//5 45//5
f 7//5 30//5 32//5 15//5
f 55//6 62//6 32//6 14//6
f 8//2 29//2 35//2 20//2
f 9//5 27//5 33//5 21//5
f 53//9 61//9 29//9 5//9
f 9//5 1//5 25//5 27//5
f 2//2 10//2 28//2 26//2
f 5//2 29//2 31//2 13//2
f 49//1 2//1 26//1 63//1
f 29//2 17//2 35//2
f 66//6 38//6 42//6 64//6
f 47//6 37//6 41//6 45//6
f 48//6 39//6 44//6 46//6
f 67//10 40//10 43//10 65//10
f 38//6 48//6 46//6 42//6
f 40//6 47//6 45//6 43//6
f 58//4 24//4 44//4 65//4
f 18//5 36//5 48//5 38//5
f 57//3 21//3 41//3 64//3
f 60//11 68//11 36//11 19//11
f 21//5 33//5 45//5 41//5
f 59//4 18//4 38//4 66//4
f 35//2 47//2 40//2
f 17//4 59//4 66//4 37//4
f 20//12 35//12 68//12 60//12
f 22//3 57//3 64//3 42//3
f 23//4 58//4 65//4 43//4
f 39//13 67//13 65//13 44//13
f 37//6 66//6 64//6 41//6
f 1//1 49//1 63//1 25//1
f 6//14 30//14 61//14 53//14
f 13//6 31//6 62//6 55//6
f 7//3 54//3 60//3 19//3
f 10//3 51//3 57//3 22//3
f 29//15 61//15 59//15 17//15
f 36//16 68//16 67//16 39//16
f 8//3 54//3 56//3 16//3
f 6//4 53//4 55//4 14//4
f 31//6 16//6 56//6 62//6
f 11//4 52//4 58//4 23//4
f 3//4 12//4 52//4 50//4
f 1//3 9//3 51//3 49//3
f 25//1 63//1 50//1 4//1
